<?xml version="1.0"?>
<svg xmlns="http://www.w3.org/2000/svg" xmlns:xlink="http://www.w3.org/1999/xlink" xmlns:svgjs="http://svgjs.com/svgjs" version="1.1" width="512" height="512" x="0" y="0" viewBox="0 0 480 480" style="enable-background:new 0 0 512 512" xml:space="preserve" class=""><g>
<g xmlns="http://www.w3.org/2000/svg">
	<g>
		<rect x="280" y="400" width="16" height="80" fill="#e95d0c" data-original="#000000" style="" class=""/>
	</g>
</g>
<g xmlns="http://www.w3.org/2000/svg">
	<g>
		<rect x="184" y="400" width="16" height="80" fill="#e95d0c" data-original="#000000" style="" class=""/>
	</g>
</g>
<g xmlns="http://www.w3.org/2000/svg">
	<g>
		<path d="M240,224c-22.08,0.026-39.974,17.92-40,40v16c0,22.091,17.909,40,40,40c22.091,0,40-17.909,40-40v-16    C279.974,241.92,262.08,224.026,240,224z M264,280c0,13.255-10.745,24-24,24s-24-10.745-24-24v-16c0-13.255,10.745-24,24-24    s24,10.745,24,24V280z" fill="#e95d0c" data-original="#000000" style="" class=""/>
	</g>
</g>
<g xmlns="http://www.w3.org/2000/svg">
	<g>
		<path d="M424,352h-80c-7.219,0.009-14.368,1.411-21.056,4.128C312.327,343.376,296.593,336.002,280,336h-80    c-16.593,0.002-32.327,7.376-42.944,20.128c-6.688-2.717-13.837-4.119-21.056-4.128H56c-30.911,0.04-55.96,25.089-56,56v72h16v-72    c0.026-22.08,17.92-39.974,40-40h32v112h16V368h32c4.244,0.027,8.457,0.729,12.48,2.08c-2.963,6.928-4.487,14.385-4.48,21.92v88    h16v-88c0.026-22.08,17.92-39.974,40-40h32v128h16V352h32c22.08,0.026,39.974,17.92,40,40v88h16v-88    c0.007-7.535-1.517-14.992-4.48-21.92c4.023-1.351,8.236-2.053,12.48-2.08h32v112h16V368h32c22.08,0.026,39.974,17.92,40,40v72h16    v-72C479.96,377.089,454.911,352.04,424,352z" fill="#e95d0c" data-original="#000000" style="" class=""/>
	</g>
</g>
<g xmlns="http://www.w3.org/2000/svg">
	<g>
		<rect x="40" y="416" width="16" height="64" fill="#e95d0c" data-original="#000000" style="" class=""/>
	</g>
</g>
<g xmlns="http://www.w3.org/2000/svg">
	<g>
		<path d="M96,240c-22.091,0-40,17.909-40,40v16c0,22.091,17.909,40,40,40s40-17.909,40-40v-16C136,257.909,118.091,240,96,240z     M120,296c0,13.255-10.745,24-24,24s-24-10.745-24-24v-16c0-13.255,10.745-24,24-24s24,10.745,24,24V296z" fill="#e95d0c" data-original="#000000" style="" class=""/>
	</g>
</g>
<g xmlns="http://www.w3.org/2000/svg">
	<g>
		<rect x="424" y="416" width="16" height="64" fill="#e95d0c" data-original="#000000" style="" class=""/>
	</g>
</g>
<g xmlns="http://www.w3.org/2000/svg">
	<g>
		<path d="M384,240c-22.091,0-40,17.909-40,40v16c0.026,22.08,17.92,39.974,40,40c22.08-0.026,39.974-17.92,40-40v-16    C424,257.909,406.091,240,384,240z M408,296c0,13.255-10.745,24-24,24s-24-10.745-24-24v-16c0-13.255,10.745-24,24-24    s24,10.745,24,24V296z" fill="#e95d0c" data-original="#000000" style="" class=""/>
	</g>
</g>
<g xmlns="http://www.w3.org/2000/svg">
	<g>
		<path d="M427.776,200c-4.841-22.965-13.904-44.832-26.728-64.488l36.944-36.936l-56.568-56.568l-36.936,36.944    C324.832,66.128,302.965,57.065,280,52.224V0h-80v52.232c-22.956,4.866-44.818,13.924-64.488,26.72L98.576,42.008L42.008,98.576    l36.944,36.936C66.128,155.168,57.065,177.035,52.224,200H0v80h40v-16H16v-48h49.544l1.168-6.616    c4.394-25.284,14.336-49.281,29.112-70.264l3.856-5.504l-35.048-35.04l33.944-33.944L133.6,99.68l5.504-3.848    c20.998-14.751,44.988-24.693,70.264-29.12L216,65.544V16h48v49.544l6.616,1.168c25.284,4.394,49.281,14.336,70.264,29.112    l5.504,3.856l35.04-35.048l33.944,33.944L380.32,133.6l3.856,5.504c14.776,20.983,24.718,44.98,29.112,70.264l1.168,6.616H464v48    h-24v16h40V200H427.776z" fill="#e95d0c" data-original="#000000" style="" class=""/>
	</g>
</g>
<g xmlns="http://www.w3.org/2000/svg">
	<g>
		<path d="M231.095,168.417c-28.212,4.074-50.374,26.236-54.447,54.447l15.848,2.272c3.813-26.395,28.3-44.701,54.695-40.889    c21.186,3.06,37.829,19.703,40.889,40.889l15.84-2.272C298.845,187.719,266.24,163.342,231.095,168.417z" fill="#e95d0c" data-original="#000000" style="" class=""/>
	</g>
</g>
<g xmlns="http://www.w3.org/2000/svg">
	<g>
		<path d="M223.064,120.992c-52.832,7.528-94.344,49.04-101.872,101.872l15.848,2.272c8.164-56.854,60.872-96.326,117.727-88.161    c45.697,6.562,81.599,42.464,88.161,88.161h0.016l15.848-2.272C349.443,157.253,288.675,111.643,223.064,120.992z" fill="#e95d0c" data-original="#000000" style="" class=""/>
	</g>
</g>
<g xmlns="http://www.w3.org/2000/svg">
</g>
<g xmlns="http://www.w3.org/2000/svg">
</g>
<g xmlns="http://www.w3.org/2000/svg">
</g>
<g xmlns="http://www.w3.org/2000/svg">
</g>
<g xmlns="http://www.w3.org/2000/svg">
</g>
<g xmlns="http://www.w3.org/2000/svg">
</g>
<g xmlns="http://www.w3.org/2000/svg">
</g>
<g xmlns="http://www.w3.org/2000/svg">
</g>
<g xmlns="http://www.w3.org/2000/svg">
</g>
<g xmlns="http://www.w3.org/2000/svg">
</g>
<g xmlns="http://www.w3.org/2000/svg">
</g>
<g xmlns="http://www.w3.org/2000/svg">
</g>
<g xmlns="http://www.w3.org/2000/svg">
</g>
<g xmlns="http://www.w3.org/2000/svg">
</g>
<g xmlns="http://www.w3.org/2000/svg">
</g>
</g></svg>
