<svg id="flat" height="512" viewBox="0 0 512 512" width="512" xmlns="http://www.w3.org/2000/svg"><path d="m456 24-9.6 48-54.4 272h-208l-54.4-272-9.6-48z" fill="#548aff"/><path d="m456 24-9.6 48h-316.8l-9.6-48z" fill="#639aff"/><path d="m168 344v-96l-24-48h-40l-24 48v96z" fill="#ef5e3b"/><path d="m176 344 40-56h96l56 56z" fill="#9ce6ed"/><path d="m456 376v80h-416v-112h384a31.97287 31.97287 0 0 1 32 32z" fill="#ffc431"/><path d="m232 344h16v112h-16z" fill="#ffb401"/><path d="m232 288h16v56h-16z" fill="#6cdbe6"/><circle cx="144" cy="456" fill="#e0edff" r="32"/><path d="m144 496a40 40 0 1 1 40-40 40.04552 40.04552 0 0 1 -40 40zm0-64a24 24 0 1 0 24 24 24.0275 24.0275 0 0 0 -24-24z" fill="#718799"/><circle cx="144" cy="456" fill="#c5dafa" r="8"/><circle cx="392" cy="456" fill="#e0edff" r="32"/><path d="m392 496a40 40 0 1 1 40-40 40.04552 40.04552 0 0 1 -40 40zm0-64a24 24 0 1 0 24 24 24.0275 24.0275 0 0 0 -24-24z" fill="#718799"/><circle cx="392" cy="456" fill="#c5dafa" r="8"/><path d="m40 376h32l-8 24h-24z" fill="#f5714f"/><path d="m456 376v16h-24l-8-24h30.99a32.00775 32.00775 0 0 1 1.01 8z" fill="#ffe28f"/><path d="m24 424h24l24 32v16h-48z" fill="#d1e4ff"/><path d="m456 384h32v72h-32z" fill="#d1e4ff"/><path d="m272 368h24v16h-24z" fill="#ffb401"/><path d="m80 280h88v64h-88z" fill="#ff9178"/><path d="m104 168h40v32h-40z" fill="#fa8669"/><path d="m160 128h-80v40h112v-24z" fill="#ffb0a1"/><path d="m160 168v-40l32 16v24z" fill="#fa8669"/><path d="m180.42188 207.15527a36.7425 36.7425 0 0 1 -20.42188-33.04394v-6.11133h16v6.11133a20.83053 20.83053 0 0 0 11.57812 18.7334z" fill="#ef5e3b"/><path d="m302.62741 62.62741 162.74518 162.74518a22.6274 22.6274 0 0 1 6.62741 16 22.62739 22.62739 0 0 1 -22.62739 22.62741 22.6274 22.6274 0 0 1 -16-6.62741l-162.7452-162.74518a22.6274 22.6274 0 0 1 -6.62741-16 22.62739 22.62739 0 0 1 22.62739-22.62741 22.6274 22.6274 0 0 1 16.00002 6.62741z" fill="#91c0ff"/></svg>