<svg height="512" viewBox="0 0 64 64" width="512" xmlns="http://www.w3.org/2000/svg"><g id="Car-6" data-name="Car"><circle cx="15" cy="44" fill="#57565c" r="6"/><circle cx="49" cy="44" fill="#57565c" r="6"/><path d="m27 19a1 1 0 0 0 -1-1h-9.02a4.011 4.011 0 0 0 -3.84 2.85l-1.75 5.86a1 1 0 0 0 .95 1.29h14.66zm3-5v30h-9a6 6 0 0 0 -12 0h-4a2.006 2.006 0 0 1 -2-2v-10a17.993 17.993 0 0 1 18-18z" fill="#ff6243"/><path d="m61 40v2a2.006 2.006 0 0 1 -2 2h-4a6 6 0 0 0 -12 0h-13v-30h6.36a7.984 7.984 0 0 1 6.92 4h-9.28a1 1 0 0 0 -1 1v8a1 1 0 0 0 1 1h15l10.33 1.72a2.006 2.006 0 0 1 1.67 1.97v.31h-5a1 1 0 0 0 -1 1v2a1 1 0 0 0 1 1h5z" fill="#ff7956"/><g fill="#e6e7e8"><path d="m61 32v4h-5a1 1 0 0 1 -1-1v-2a1 1 0 0 1 1-1z"/><path d="m27 19v9h-14.66a1 1 0 0 1 -.95-1.29l1.75-5.86a4.011 4.011 0 0 1 3.84-2.85h9.02a1 1 0 0 1 1 1z"/><path d="m43.3 18.03 5.7 9.97h-15a1 1 0 0 1 -1-1v-8a1 1 0 0 1 1-1h9.28c.01.01.01.02.02.03z"/></g><path d="m15 51a7 7 0 1 1 7-7 7.008 7.008 0 0 1 -7 7zm0-12a5 5 0 1 0 5 5 5.006 5.006 0 0 0 -5-5z" fill="#3e3d42"/><path d="m49 51a7 7 0 1 1 7-7 7.008 7.008 0 0 1 -7 7zm0-12a5 5 0 1 0 5 5 5.006 5.006 0 0 0 -5-5z" fill="#3e3d42"/><path d="m57 39h4v2h-4z" fill="#ee8700"/><path d="m36 31h4v2h-4z" fill="#ed1c24"/><path d="m14 43h2v2h-2z" fill="#3e3d42"/><path d="m48 43h2v2h-2z" fill="#3e3d42"/><path d="m3 39h4v2h-4z" fill="#ee8700"/></g></svg>