<svg id="Capa_1" enable-background="new 0 0 512.16 512.16" height="512" viewBox="0 0 512.16 512.16" width="512" xmlns="http://www.w3.org/2000/svg"><g id="XMLID_25_"><path id="XMLID_3806_" d="m258.845 3.913-45.803 136.47-4.951 44.545-24.951 44.544-28.561 85.097-4.951 54.545-24.95 34.545-30.871 91.976h330.076l-30.87-91.976-26.396-38.85-3.507-50.24-28.559-85.097-24.951-44.544-4.951-44.545z" fill="#ffc34d"/><path id="XMLID_37_" d="m423.883 495.635-30.87-91.976-26.396-38.85-3.507-50.24-28.559-85.097-24.951-44.544-4.951-44.545-45.804-136.47v491.722z" fill="#f93"/><path id="XMLID_3809_" d="m304.649 140.383h-91.606l-29.902 89.09h151.411z" fill="#e6ecf2"/><path id="XMLID_3804_" d="m393.013 403.659h-268.335l29.901-89.09h208.531z" fill="#e6ecf2"/><path id="XMLID_3810_" d="m0 478.247h512.16v30h-512.16z" fill="#f93"/><path id="XMLID_32_" d="m258.845 478.247h253.315v30h-253.315z" fill="#f73"/><g fill="#d6d6da"><path id="XMLID_58_" d="m258.845 403.659h134.168l-29.903-89.09h-104.265z"/><path id="XMLID_143_" d="m258.845 229.472h75.706l-29.902-89.089h-45.804z"/></g></g></svg>