<?xml version="1.0"?>
<svg xmlns="http://www.w3.org/2000/svg" xmlns:xlink="http://www.w3.org/1999/xlink" xmlns:svgjs="http://svgjs.com/svgjs" version="1.1" width="512" height="512" x="0" y="0" viewBox="0 0 512 512" style="enable-background:new 0 0 512 512" xml:space="preserve" class=""><g><path xmlns="http://www.w3.org/2000/svg" d="M488,416H472V360a8.00008,8.00008,0,0,0-8-8H422.31885A43.01216,43.01216,0,0,0,432,324.77832a54.1576,54.1576,0,0,0-7.71387-27.85205l-17.42578-29.04248a8.00033,8.00033,0,0,0-14.70508,2.54736,98.63738,98.63738,0,0,1-37.58886,59.644L325.3335,352H294.627A62.1409,62.1409,0,0,0,256,365.34326,62.1409,62.1409,0,0,0,217.37305,352H48a8.00008,8.00008,0,0,0-8,8v56H24a8.00008,8.00008,0,0,0-8,8v32a8.00008,8.00008,0,0,0,8,8H196.68652l12.68555,12.686a65.94176,65.94176,0,0,0,93.25586,0L315.31348,464H488a8.00008,8.00008,0,0,0,8-8V424A8.00008,8.00008,0,0,0,488,416ZM364.166,342.875a114.60891,114.60891,0,0,0,38.418-51.019l7.98145,13.30224A38.13985,38.13985,0,0,1,416,324.77832,27.25261,27.25261,0,0,1,388.77832,352H352ZM456,368v16H400v16h56v16H304a8.00076,8.00076,0,0,0-5.65723,2.34326l-20.68554,20.686A30.44209,30.44209,0,0,1,264,446.94165V425.9624A49.599,49.599,0,0,1,307.77734,400H384V384H307.77734A65.569,65.569,0,0,0,264,400.57788V379.48364A46.27479,46.27479,0,0,1,294.627,368ZM56,368H217.37305A46.28373,46.28373,0,0,1,248,379.46631v21.11157A65.569,65.569,0,0,0,204.22266,384H152v16h52.22266A49.598,49.598,0,0,1,248,425.9624v20.97937a30.43766,30.43766,0,0,1-13.65625-7.912l-20.68652-20.68653A8.00076,8.00076,0,0,0,208,416H56Zm424,80H312a8.00076,8.00076,0,0,0-5.65723,2.34326l-15.02929,15.0293a49.94052,49.94052,0,0,1-70.627,0l-15.02929-15.0293A8.00076,8.00076,0,0,0,200,448H32V432H204.68652l18.34375,18.34375a46.62744,46.62744,0,0,0,65.94043-.00049L307.31348,432H480Z" fill="#273b50" data-original="#000000" style="" class=""/><rect xmlns="http://www.w3.org/2000/svg" x="120" y="384" width="16" height="16" fill="#273b50" data-original="#000000" style="" class=""/><path xmlns="http://www.w3.org/2000/svg" d="M64,288h69.041L186.794,334.07422A8,8,0,0,0,200,328V288h24a24.02718,24.02718,0,0,0,24-24V112a24.02718,24.02718,0,0,0-24-24H64a24.02718,24.02718,0,0,0-24,24V264A24.02718,24.02718,0,0,0,64,288ZM56,112a8.00917,8.00917,0,0,1,8-8H224a8.00917,8.00917,0,0,1,8,8V264a8.00917,8.00917,0,0,1-8,8H168v16h16v22.60645l-42.79395-36.68067A7.99748,7.99748,0,0,0,136,272H64a8.00917,8.00917,0,0,1-8-8Z" fill="#273b50" data-original="#000000" style="" class=""/><path xmlns="http://www.w3.org/2000/svg" d="M264,40V184a24.02718,24.02718,0,0,0,24,24h24v40a7.99994,7.99994,0,0,0,13.20605,6.07422L378.959,208H448a24.02718,24.02718,0,0,0,24-24V40a24.02718,24.02718,0,0,0-24-24H288A24.02718,24.02718,0,0,0,264,40Zm192,0V184a8.00917,8.00917,0,0,1-8,8H376a7.99748,7.99748,0,0,0-5.20605,1.92578L328,230.60645V208h16V192H288a8.00917,8.00917,0,0,1-8-8V40a8.00917,8.00917,0,0,1,8-8H448A8.00917,8.00917,0,0,1,456,40Z" fill="#273b50" data-original="#000000" style="" class=""/><path xmlns="http://www.w3.org/2000/svg" d="M344,125.13214V160a7.97515,7.97515,0,0,0,2.343,5.65656l-.00025.00018,8,8A8.00076,8.00076,0,0,0,360,176h16a8.00076,8.00076,0,0,0,5.65723-2.34326l8-8-.00025-.00018A7.97515,7.97515,0,0,0,392,160V125.13214a32,32,0,1,0-48,0ZM360,152V134.98737a32.1072,32.1072,0,0,0,16,0V152Zm8-64a16,16,0,1,1-16,16A16.01833,16.01833,0,0,1,368,88Z" fill="#273b50" data-original="#000000" style="" class=""/><rect xmlns="http://www.w3.org/2000/svg" x="360" y="48" width="16" height="16" fill="#273b50" data-original="#000000" style="" class=""/><rect xmlns="http://www.w3.org/2000/svg" x="326.0589" y="62.05883" width="16.00036" height="16.00002" transform="translate(48.30053 256.72903) rotate(-44.99876)" fill="#273b50" data-original="#000000" style="" class=""/><rect xmlns="http://www.w3.org/2000/svg" x="312" y="96" width="16" height="16" fill="#273b50" data-original="#000000" style="" class=""/><rect xmlns="http://www.w3.org/2000/svg" x="408" y="96" width="16" height="16" fill="#273b50" data-original="#000000" style="" class=""/><rect xmlns="http://www.w3.org/2000/svg" x="393.94091" y="62.05866" width="16.00002" height="16.00036" transform="translate(68.19682 304.74931) rotate(-45.00247)" fill="#273b50" data-original="#000000" style="" class=""/><path xmlns="http://www.w3.org/2000/svg" d="M94.11182,220.57648l-12.186,14.217A8,8,0,0,0,88,248H208a8.00008,8.00008,0,0,0,8-8V160a8.00008,8.00008,0,0,0-8-8H178.59912a55.99994,55.99994,0,1,0-84.4873,68.57648ZM105.39355,232,136,196.293,166.60645,232ZM200,232H187.67969L144,181.04022V168h56Zm-72-96a40.08913,40.08913,0,0,1,32.001,16H136a8.00008,8.00008,0,0,0-8,8v21.04022L104.55908,208.388A39.98426,39.98426,0,0,1,128,136Z" fill="#273b50" data-original="#000000" style="" class=""/></g></svg>
