<?xml version="1.0"?>
<svg xmlns="http://www.w3.org/2000/svg" xmlns:xlink="http://www.w3.org/1999/xlink" xmlns:svgjs="http://svgjs.com/svgjs" version="1.1" width="512" height="512" x="0" y="0" viewBox="0 0 24 24" style="enable-background:new 0 0 512 512" xml:space="preserve" class=""><g><g xmlns="http://www.w3.org/2000/svg" fill="#90caf9"><path d="m23 0h-4c-.552 0-1 .448-1 1v4c0 .552.448 1 1 1h4c.552 0 1-.448 1-1v-4c0-.552-.448-1-1-1z" fill="#f9b290" data-original="#90caf9" style="" class=""/><path d="m1 6h4c.552 0 1-.448 1-1v-4c0-.552-.448-1-1-1h-4c-.552 0-1 .448-1 1v4c0 .552.448 1 1 1z" fill="#f9b290" data-original="#90caf9" style="" class=""/><path d="m14 6c.553 0 1-.447 1-1v-4c0-.553-.447-1-1-1h-4c-.553 0-1 .447-1 1v4c0 .553.447 1 1 1z" fill="#f9b290" data-original="#90caf9" style="" class=""/></g><path xmlns="http://www.w3.org/2000/svg" d="m23 18h-22c-.553 0-1 .447-1 1v4c0 .553.447 1 1 1h22c.553 0 1-.447 1-1v-4c0-.553-.447-1-1-1z" fill="#f9b290" data-original="#42a5f5" style="" class=""/><path xmlns="http://www.w3.org/2000/svg" d="m23 9h-22c-.553 0-1 .447-1 1v4c0 .553.447 1 1 1h22c.553 0 1-.447 1-1v-4c0-.553-.447-1-1-1z" fill="#f9b290" data-original="#90caf9" style="" class=""/><path xmlns="http://www.w3.org/2000/svg" d="m12 0h-2c-.553 0-1 .447-1 1v4c0 .553.447 1 1 1h2z" fill="#f56a04" data-original="#7db0d9" style="" class=""/><path xmlns="http://www.w3.org/2000/svg" d="m21 0h-2c-.553 0-1 .447-1 1v4c0 .553.447 1 1 1h2z" fill="#f56a04" data-original="#7db0d9" style="" class=""/><path xmlns="http://www.w3.org/2000/svg" d="m3 0h-2c-.553 0-1 .447-1 1v4c0 .553.447 1 1 1h2z" fill="#f56a04" data-original="#7db0d9" style="" class=""/><path xmlns="http://www.w3.org/2000/svg" d="m12 18h-11c-.553 0-1 .447-1 1v4c0 .553.447 1 1 1h11z" fill="#f56a04" data-original="#3990d5" style="" class=""/><path xmlns="http://www.w3.org/2000/svg" d="m12 9h-11c-.553 0-1 .447-1 1v4c0 .553.447 1 1 1h11z" fill="#f56a04" data-original="#7db0d9" style="" class=""/></g></svg>
