<?xml version="1.0"?>
<svg xmlns="http://www.w3.org/2000/svg" xmlns:xlink="http://www.w3.org/1999/xlink" xmlns:svgjs="http://svgjs.com/svgjs" version="1.1" width="512" height="512" x="0" y="0" viewBox="0 0 300 300" style="enable-background:new 0 0 512 512" xml:space="preserve" class=""><g><g xmlns="http://www.w3.org/2000/svg"><path d="m200.645 218.748c6.617 0 12-5.383 12-12s-5.383-12-12-12-12 5.383-12 12 5.383 12 12 12zm0-16c2.207 0 4 1.795 4 4s-1.793 4-4 4-4-1.795-4-4 1.793-4 4-4z" fill="#f37121" data-original="#000000" style="" class=""/><path d="m262.834 256.193c-2.501-.005-4.533 2.02-4.538 4.521s2.02 4.533 4.521 4.538c2.502.005 4.533-2.02 4.538-4.521.005-2.502-2.019-4.533-4.521-4.538z" fill="#f37121" data-original="#000000" style="" class=""/><path d="m199.355 164.731c.005-2.501-2.02-4.533-4.521-4.538s-4.533 2.02-4.538 4.521 2.02 4.533 4.521 4.538c2.502.005 4.533-2.02 4.538-4.521z" fill="#f37121" data-original="#000000" style="" class=""/><path d="m246.422 34.748h-19.555c-5.637 0-10.223 4.586-10.223 10.223v5.777h-52v-5.777c0-5.637-4.586-10.223-10.223-10.223h-19.555c-5.637 0-10.223 4.586-10.223 10.223v5.777h-52v-5.777c0-5.637-4.586-10.223-10.223-10.223h-19.552c-5.637 0-10.223 4.586-10.223 10.223v19.555c0 5.637 4.586 10.223 10.223 10.223h5.777v52h-5.777c-5.637 0-10.223 4.586-10.223 10.223v19.555c0 5.637 4.586 10.223 10.223 10.223h5.777v40c0 2.209 1.789 4 4 4s4-1.791 4-4v-40h5.777c5.637 0 10.223-4.586 10.223-10.223v-19.555c0-5.637-4.586-10.223-10.223-10.223h-5.777v-52h5.777c5.637 0 10.223-4.586 10.223-10.223v-5.777h52v5.777c0 5.637 4.586 10.223 10.223 10.223h19.555c5.637 0 10.223-4.586 10.223-10.223v-5.777h52v5.777c0 5.637 4.586 10.223 10.223 10.223h19.555c5.637 0 10.223-4.586 10.223-10.223v-19.555c-.002-5.637-4.588-10.223-10.225-10.223zm-181.777 102.223v19.555c0 1.225-.996 2.223-2.223 2.223h-19.554c-1.227 0-2.223-.998-2.223-2.223v-19.555c0-1.225.996-2.223 2.223-2.223h19.555c1.226 0 2.222.998 2.222 2.223zm0-72.446c0 1.225-.996 2.223-2.223 2.223h-19.554c-1.227 0-2.223-.998-2.223-2.223v-19.554c0-1.225.996-2.223 2.223-2.223h19.555c1.227 0 2.223.998 2.223 2.223v19.554zm92 0c0 1.225-.996 2.223-2.223 2.223h-19.555c-1.227 0-2.223-.998-2.223-2.223v-19.554c0-1.225.996-2.223 2.223-2.223h19.555c1.227 0 2.223.998 2.223 2.223zm92 0c0 1.225-.996 2.223-2.223 2.223h-19.555c-1.227 0-2.223-.998-2.223-2.223v-19.554c0-1.225.996-2.223 2.223-2.223h19.555c1.227 0 2.223.998 2.223 2.223z" fill="#f37121" data-original="#000000" style="" class=""/><path d="m246.422 126.748h-5.777v-40c0-2.209-1.789-4-4-4s-4 1.791-4 4v40h-5.777c-5.637 0-10.223 4.586-10.223 10.223v19.555c0 5.637 4.586 10.223 10.223 10.223h5.777v52h-5.777c-5.637 0-10.223 4.586-10.223 10.223v5.777h-52v-5.777c0-5.637-4.586-10.223-10.223-10.223h-19.555c-5.637 0-10.223 4.586-10.223 10.223v5.777h-52v-5.777c0-5.637-4.586-10.223-10.223-10.223h-19.553c-5.637 0-10.223 4.586-10.223 10.223v19.555c0 5.637 4.586 10.223 10.223 10.223h19.555c5.637 0 10.223-4.586 10.223-10.223v-5.777h52v5.777c0 5.637 4.586 10.223 10.223 10.223h19.555c5.637 0 10.223-4.586 10.223-10.223v-5.777h52v5.777c0 5.637 4.586 10.223 10.223 10.223h19.555c5.637 0 10.223-4.586 10.223-10.223v-19.555c0-5.637-4.586-10.223-10.223-10.223h-5.777v-52h5.777c5.637 0 10.223-4.586 10.223-10.223v-19.555c-.003-5.637-4.589-10.223-10.226-10.223zm-181.777 121.777c0 1.225-.996 2.223-2.223 2.223h-19.554c-1.227 0-2.223-.998-2.223-2.223v-19.555c0-1.225.996-2.223 2.223-2.223h19.555c1.227 0 2.223.998 2.223 2.223v19.555zm92 0c0 1.225-.996 2.223-2.223 2.223h-19.555c-1.227 0-2.223-.998-2.223-2.223v-19.555c0-1.225.996-2.223 2.223-2.223h19.555c1.227 0 2.223.998 2.223 2.223zm92-19.554v19.555c0 1.225-.996 2.223-2.223 2.223h-19.555c-1.227 0-2.223-.998-2.223-2.223v-19.555c0-1.225.996-2.223 2.223-2.223h19.555c1.227 0 2.223.998 2.223 2.223zm0-72.446c0 1.225-.996 2.223-2.223 2.223h-19.555c-1.227 0-2.223-.998-2.223-2.223v-19.555c0-1.225.996-2.223 2.223-2.223h19.555c1.227 0 2.223.998 2.223 2.223z" fill="#f37121" data-original="#000000" style="" class=""/><path d="m166.422 178.748c5.637 0 10.223-4.586 10.223-10.223v-43.555c0-5.637-4.586-10.223-10.223-10.223h-43.555c-5.637 0-10.223 4.586-10.223 10.223v43.555c0 5.637 4.586 10.223 10.223 10.223zm-45.777-10.223v-43.555c0-1.225.996-2.223 2.223-2.223h43.555c1.227 0 2.223.998 2.223 2.223v43.555c0 1.225-.996 2.223-2.223 2.223h-43.555c-1.227 0-2.223-.998-2.223-2.223z" fill="#f37121" data-original="#000000" style="" class=""/></g></g></svg>
