<svg height="512" viewBox="0 0 64 64" width="512" xmlns="http://www.w3.org/2000/svg" xmlns:xlink="http://www.w3.org/1999/xlink"><linearGradient id="New_Gradient_Swatch_1" gradientUnits="userSpaceOnUse" x1="32" x2="32" y1="4.338" y2="58.42"><stop offset="0" stop-color="#fff33b"/><stop offset=".014" stop-color="#fee72e"/><stop offset=".042" stop-color="#fed51b"/><stop offset=".07" stop-color="#fdca10"/><stop offset=".1" stop-color="#fdc70c"/><stop offset=".4" stop-color="#f3903f"/><stop offset=".8" stop-color="#ed683c"/><stop offset="1" stop-color="#e93e3a"/></linearGradient><linearGradient id="New_Gradient_Swatch_1-2" x1="37" x2="37" xlink:href="#New_Gradient_Swatch_1" y1="4.338" y2="58.42"/><linearGradient id="New_Gradient_Swatch_1-3" x1="15" x2="15" xlink:href="#New_Gradient_Swatch_1" y1="4.338" y2="58.42"/><linearGradient id="New_Gradient_Swatch_1-4" x1="24" x2="24" xlink:href="#New_Gradient_Swatch_1" y1="4.338" y2="58.42"/><linearGradient id="New_Gradient_Swatch_1-6" x1="40" x2="40" xlink:href="#New_Gradient_Swatch_1" y1="4.338" y2="58.42"/><linearGradient id="New_Gradient_Swatch_1-8" x1="27" x2="27" xlink:href="#New_Gradient_Swatch_1" y1="4.338" y2="58.42"/><linearGradient id="New_Gradient_Swatch_1-9" x1="31" x2="31" xlink:href="#New_Gradient_Swatch_1" y1="4.338" y2="58.42"/><linearGradient id="New_Gradient_Swatch_1-10" x1="13" x2="13" xlink:href="#New_Gradient_Swatch_1" y1="4.338" y2="58.42"/><linearGradient id="New_Gradient_Swatch_1-11" x1="51" x2="51" xlink:href="#New_Gradient_Swatch_1" y1="4.338" y2="58.42"/><g id="Taxi"><path d="m59.49 33.74-9.17-1.53a1 1 0 0 1 -.77-.65l-4.13-11.57a3.022 3.022 0 0 0 -2.83-1.99h-9.59v-2h2a1 1 0 0 0 1-1v-8a1 1 0 0 0 -1-1h-12a1 1 0 0 0 -1 1v8a1 1 0 0 0 1 1h2v2h-10.49a3.018 3.018 0 0 0 -2.89 2.18l-3.17 11.09a1 1 0 0 1 -.96.73h-2.49a3.009 3.009 0 0 0 -3 3v14a3.009 3.009 0 0 0 3 3h1.08a6.991 6.991 0 0 0 13.84 0h24.16a6.991 6.991 0 0 0 13.84 0h1.08a3.009 3.009 0 0 0 3-3v-12.31a2.978 2.978 0 0 0 -2.51-2.95zm-35.49-19.74v-6h10v6zm7 2v2h-4v-2zm-13.1 36a5.038 5.038 0 0 1 -.73 1.75l-.63-.63-1.42 1.42.63.63a5.038 5.038 0 0 1 -1.75.73v-.9h-2v.9a5.038 5.038 0 0 1 -1.75-.73l.63-.63-1.42-1.42-.63.63a5.038 5.038 0 0 1 -.73-1.75h.9v-2h-.9a5.038 5.038 0 0 1 .73-1.75l.63.63 1.42-1.42-.63-.63a5.038 5.038 0 0 1 1.75-.73v.9h2v-.9a5.038 5.038 0 0 1 1.75.73l-.63.63 1.42 1.42.63-.63a5.038 5.038 0 0 1 .73 1.75h-.9v2zm13.1-20h-16.65l2.41-8h14.24zm24.9 20a5.038 5.038 0 0 1 -.73 1.75l-.63-.63-1.42 1.42.63.63a5.038 5.038 0 0 1 -1.75.73v-.9h-2v.9a5.038 5.038 0 0 1 -1.75-.73l.63-.63-1.42-1.42-.63.63a5.038 5.038 0 0 1 -.73-1.75h.9v-2h-.9a5.038 5.038 0 0 1 .73-1.75l.63.63 1.42-1.42-.63-.63a5.038 5.038 0 0 1 1.75-.73v.9h2v-.9a5.038 5.038 0 0 1 1.75.73l-.63.63 1.42 1.42.63-.63a5.038 5.038 0 0 1 .73 1.75h-.9v2zm4.1-8h-3v2h3v3a1 1 0 0 1 -1 1h-1.08a6.991 6.991 0 0 0 -13.84 0h-11.08v-16h12a1 1 0 0 0 .83-.44 1.021 1.021 0 0 0 .1-.93l-4-10a1 1 0 0 0 -.93-.63h-24.98a1.008 1.008 0 0 0 -.96.71l-3.02 10a1.017 1.017 0 0 0 .16.89 1 1 0 0 0 .8.4h18v16h-11.08a6.991 6.991 0 0 0 -13.84 0h-1.08a1 1 0 0 1 -1-1v-6h3v-2h-3v-2h3v-2h-3v-2a1 1 0 0 1 1-1h2.49a3.018 3.018 0 0 0 2.89-2.18l3.17-11.09a1 1 0 0 1 .96-.73h28.08a1.006 1.006 0 0 1 .94.66l4.13 11.57a3.019 3.019 0 0 0 2.33 1.95l9.17 1.53a.954.954 0 0 1 .55.29h-2.71a3 3 0 0 0 0 6h3zm-27-12v-8h7.32l3.2 8zm27 8h-3a1 1 0 0 1 0-2h3z" fill="url(#New_Gradient_Swatch_1)"/><path d="m35 36h4v2h-4z" fill="url(#New_Gradient_Swatch_1-2)"/><path d="m13 36h4v2h-4z" fill="url(#New_Gradient_Swatch_1-3)"/><path d="m19 40h10v2h-10z" fill="url(#New_Gradient_Swatch_1-4)"/><path d="m19 44h10v2h-10z" fill="url(#New_Gradient_Swatch_1-4)"/><path d="m35 40h10v2h-10z" fill="url(#New_Gradient_Swatch_1-6)"/><path d="m35 44h10v2h-10z" fill="url(#New_Gradient_Swatch_1-6)"/><path d="m26 10h2v2h-2z" fill="url(#New_Gradient_Swatch_1-8)"/><path d="m30 10h2v2h-2z" fill="url(#New_Gradient_Swatch_1-9)"/><path d="m13 48a3 3 0 1 0 3 3 3 3 0 0 0 -3-3zm0 4a1 1 0 1 1 1-1 1 1 0 0 1 -1 1z" fill="url(#New_Gradient_Swatch_1-10)"/><path d="m51 48a3 3 0 1 0 3 3 3 3 0 0 0 -3-3zm0 4a1 1 0 1 1 1-1 1 1 0 0 1 -1 1z" fill="url(#New_Gradient_Swatch_1-11)"/></g></svg>