<?xml version="1.0"?>
<svg xmlns="http://www.w3.org/2000/svg" xmlns:xlink="http://www.w3.org/1999/xlink" xmlns:svgjs="http://svgjs.com/svgjs" version="1.1" width="512" height="512" x="0" y="0" viewBox="0 0 64 64" style="enable-background:new 0 0 512 512" xml:space="preserve" class=""><g><g xmlns="http://www.w3.org/2000/svg" id="laptop_template" data-name="laptop template"><path d="m35 28h4v16h-4z" fill="#f37121" data-original="#000000" style=""/><path d="m25 28h4v6h-4z" fill="#f37121" data-original="#000000" style=""/><path d="m29 55v1h6v-1a1 1 0 0 1 1-1h22v-33a1 1 0 0 0 -1-1h-50a1 1 0 0 0 -1 1v33h22a1 1 0 0 1 1 1zm19.293-22.293 1.414-1.414 6 6a1 1 0 0 1 0 1.414l-6 6-1.414-1.414 5.293-5.293zm-32.586 10.586-1.414 1.414-6-6a1 1 0 0 1 0-1.414l6-6 1.414 1.414-5.293 5.293zm3.293 5.707v-26a1 1 0 0 1 1-1h24a1 1 0 0 1 1 1v26a1 1 0 0 1 -1 1h-24a1 1 0 0 1 -1-1z" fill="#f37121" data-original="#000000" style=""/><path d="m21 48h22v-24h-22zm12-21a1 1 0 0 1 1-1h6a1 1 0 0 1 1 1v18a1 1 0 0 1 -1 1h-6a1 1 0 0 1 -1-1zm-10 0a1 1 0 0 1 1-1h6a1 1 0 0 1 1 1v8a1 1 0 0 1 -1 1h-6a1 1 0 0 1 -1-1zm0 12a1 1 0 0 1 1-1h6a1 1 0 0 1 1 1v6a1 1 0 0 1 -1 1h-6a1 1 0 0 1 -1-1z" fill="#f37121" data-original="#000000" style=""/><path d="m37 56v1a1 1 0 0 1 -1 1h-8a1 1 0 0 1 -1-1v-1h-22.82l.53 3.16a.989.989 0 0 0 .98.84h52.62a.989.989 0 0 0 .98-.84l.53-3.16z" fill="#f37121" data-original="#000000" style=""/><path d="m25 40h4v4h-4z" fill="#f37121" data-original="#000000" style=""/><path d="m30 10h4v2h-4z" fill="#f37121" data-original="#000000" style=""/><path d="m7 9h4v4h-4z" fill="#f37121" data-original="#000000" style=""/><path d="m15 9h4v4h-4z" fill="#f37121" data-original="#000000" style=""/><path d="m23 9h4v4h-4z" fill="#f37121" data-original="#000000" style=""/><path d="m37 9h4v4h-4z" fill="#f37121" data-original="#000000" style=""/><path d="m45 9h4v4h-4z" fill="#f37121" data-original="#000000" style=""/><path d="m53 9h4v4h-4z" fill="#f37121" data-original="#000000" style=""/></g></g></svg>
