<?xml version="1.0" encoding="iso-8859-1"?>
<!-- Generator: Adobe Illustrator 21.0.0, SVG Export Plug-In . SVG Version: 6.00 Build 0)  -->
<svg xmlns="http://www.w3.org/2000/svg" xmlns:xlink="http://www.w3.org/1999/xlink" version="1.1" id="Capa_1" x="0px" y="0px" viewBox="0 0 511.03 511.03" style="enable-background:new 0 0 511.03 511.03;" xml:space="preserve" width="512" height="512">
<g>
	<path style="fill-rule:evenodd;clip-rule:evenodd;fill:#EDF3F6;" d="M23.767,242.031c57.352,0,114.739,0,172.091,0   c57.352,0,114.773,0,172.16,0c-10.844-20.56-45.263-85.981-51.658-98.139c-8.4-15.972-23.609-25.269-41.341-25.269   c-26.408,0-52.802,0-79.196,0c-26.359,0-52.737,0-79.105,0c-17.721,0-32.921,9.284-41.327,25.242   C68.988,156.02,34.576,221.471,23.767,242.031z"/>
	<path style="fill-rule:evenodd;clip-rule:evenodd;fill:#E1EDF0;" d="M196.5,242.031c57.139,0,114.345,0,171.517,0   c-10.844-20.56-45.263-85.981-51.658-98.139c-8.4-15.972-23.609-25.269-41.341-25.269c-26.182,0-52.35,0-78.519,0V242.031z"/>
	<g>
		<path style="fill:#C30048;" d="M368.018,257.031H23.767c-5.253,0-10.124-2.748-12.839-7.245    c-2.716-4.496-2.882-10.086-0.438-14.735c0,0,45.225-86.018,51.629-98.177c10.968-20.821,31.378-33.251,54.599-33.251h158.301    c23.237,0,43.654,12.443,54.616,33.286c0,0,40.809,77.57,51.65,98.124c2.452,4.649,2.292,10.244-0.423,14.745    C378.147,254.279,373.274,257.031,368.018,257.031z M48.597,227.031H343.15c-6.974-13.232-40.067-76.158-40.067-76.158    c-5.766-10.963-15.995-17.25-28.064-17.25H116.718c-12.238,0-22.202,6.12-28.056,17.232    C82.262,163.006,48.597,227.031,48.597,227.031z"/>
	</g>
	<path style="fill:#900035;" d="M381.285,235.033c-10.842-20.554-51.65-98.124-51.65-98.124   c-10.962-20.843-31.379-33.286-54.616-33.286H196.5v30h78.519c12.069,0,22.299,6.288,28.064,17.25c0,0,33.094,62.926,40.067,76.158   H196.5v30h171.518c5.257,0,10.13-2.752,12.845-7.253C383.577,245.276,383.737,239.682,381.285,235.033z"/>
	<g>
		<path style="fill:#07485E;" d="M74.494,404.623H33.839C15.18,404.623,0,387.808,0,367.139v-83.543    c0-20.668,15.18-37.483,33.839-37.483h40.655c18.659,0,33.839,16.815,33.839,37.483v83.543    C108.333,387.808,93.153,404.623,74.494,404.623z"/>
	</g>
	<g>
		<path style="fill:#808080;" d="M357.827,404.623h-40.655c-18.659,0-33.839-16.815-33.839-37.483v-83.543    c0-20.668,15.18-37.483,33.839-37.483h40.655c18.659,0,33.839,16.815,33.839,37.483v83.543    C391.667,387.808,376.487,404.623,357.827,404.623z"/>
	</g>
	<g>
		<g>
			<path style="fill:#E30058;" d="M331.914,344.623H60.06c-15.729,0-30.613-6.231-41.911-17.544     c-11.727-11.744-18.172-27.438-18.148-44.19l0.026-18.096c0.037-25.71,14.462-47.629,37.647-57.203     c36.114-14.914,95.315-23.818,158.363-23.818c15.597,0,105.413,3.818,155.787,21.962c24.442,8.805,40.212,31.659,40.175,58.224     l-0.026,19.04C391.925,316.978,364.982,344.623,331.914,344.623z"/>
		</g>
	</g>
	<path style="fill:#C30048;" d="M351.824,205.733c-49.91-17.977-138.526-21.89-155.324-21.961v160.85h135.414   c33.068,0,60.011-27.645,60.059-61.626l0.026-19.04C392.036,237.392,376.267,214.538,351.824,205.733z"/>
	<path style="fill-rule:evenodd;clip-rule:evenodd;fill:#FFE477;" d="M75,284.671c8.262,0,15-6.738,15-15c0-8.262-6.738-15-15-15   c-8.262,0-15,6.738-15,15C60,277.933,66.738,284.671,75,284.671z"/>
	<path style="fill-rule:evenodd;clip-rule:evenodd;" d="M317,284.622c8.262,0,15-6.738,15-15c0-8.262-6.738-15-15-15   c-8.262,0-15,6.738-15,15C302,277.884,308.738,284.622,317,284.622z"/>
	<g>
		<path style="fill:#900035;" d="M257.006,284.622H135.009c-8.284,0-15-6.716-15-15s6.716-15,15-15h121.997c8.284,0,15,6.716,15,15    S265.29,284.622,257.006,284.622z"/>
	</g>
	<path style="fill:#700029;" d="M257.006,254.622H196.5v30h60.506c8.284,0,15-6.716,15-15S265.29,254.622,257.006,254.622z"/>
	<path style="fill-rule:evenodd;clip-rule:evenodd;fill:#FFFFFF;" d="M368.788,142.339l125.06,225.282   c2.988,5.382,3.139,11.344-0.044,16.624c-3.183,5.281-8.632,8.3-14.979,8.3H228.706c-6.347,0-11.796-3.02-14.979-8.3   c-3.183-5.28-3.033-11.24-0.044-16.624l125.06-225.282c3.004-5.411,8.645-8.373,15.022-8.373   C360.143,133.966,365.787,136.934,368.788,142.339z"/>
	<path style="fill-rule:evenodd;clip-rule:evenodd;fill:#E1EBF0;" d="M493.847,367.621l-125.06-225.282   c-3.001-5.405-8.645-8.373-15.022-8.373h0v258.58h125.06c6.347,0,11.796-3.02,14.979-8.3   C496.986,378.966,496.835,373.003,493.847,367.621z"/>
	<path style="fill:#FFE477;" d="M478.825,407.407H228.705c-11.504,0-21.861-5.792-27.707-15.491   c-5.888-9.769-6.001-21.253-0.31-31.508l125.06-225.283c5.569-10.032,16.041-16.021,28.015-16.021s22.446,5.989,28.015,16.021   l125.06,225.283c5.692,10.254,5.58,21.738-0.308,31.508C500.685,401.617,490.328,407.407,478.825,407.407z M353.765,148.827   c-0.608,0-1.679,0.094-2.028,0.725L226.676,374.834c-0.609,1.097-0.429,1.395-0.221,1.74c0.324,0.539,0.791,1.112,2.25,1.112   h250.119c1.46,0,1.927-0.574,2.251-1.112c0.207-0.343,0.387-0.641-0.223-1.74L355.794,149.552   C355.431,148.897,354.254,148.827,353.765,148.827z"/>
	<g>
		<path style="fill:#09607D;" d="M353.765,290.374c-8.207,0-14.861-6.654-14.861-14.861v-53.499c0-8.207,6.654-14.861,14.861-14.861    s14.861,6.654,14.861,14.861v53.499C368.626,283.721,361.972,290.374,353.765,290.374z"/>
	</g>
	<g>
		<path style="fill-rule:evenodd;clip-rule:evenodd;fill:#09607D;" d="M353.765,351.679c8.185,0,14.861-6.675,14.861-14.861    c0-8.185-6.676-14.861-14.861-14.861c-8.185,0-14.861,6.676-14.861,14.861C338.904,345.003,345.58,351.679,353.765,351.679z"/>
	</g>
	<path style="fill-rule:evenodd;clip-rule:evenodd;fill:#07485E;" d="M353.765,321.957L353.765,321.957l0,29.722h0   c8.185,0,14.861-6.675,14.861-14.861C368.625,328.633,361.95,321.957,353.765,321.957z"/>
	<path style="fill:#07485E;" d="M353.765,207.153v83.221c8.208,0,14.861-6.654,14.861-14.861v-53.499   C368.625,213.807,361.972,207.153,353.765,207.153z"/>
	<path style="fill:#FFD222;" d="M506.84,360.408L381.78,135.126c-5.569-10.032-16.041-16.021-28.015-16.021v29.722   c0.49,0,1.666,0.071,2.03,0.725l125.059,225.282c0.61,1.098,0.43,1.396,0.223,1.74c-0.324,0.538-0.792,1.112-2.251,1.112h-125.06   v29.722h125.06c11.503,0,21.86-5.791,27.708-15.491C512.42,382.146,512.532,370.662,506.84,360.408z"/>
</g>















</svg>
