<?xml version="1.0"?>
<svg xmlns="http://www.w3.org/2000/svg" xmlns:xlink="http://www.w3.org/1999/xlink" xmlns:svgjs="http://svgjs.com/svgjs" version="1.1" width="512" height="512" x="0" y="0" viewBox="0 0 512 512" style="enable-background:new 0 0 512 512" xml:space="preserve"><g><title xmlns="http://www.w3.org/2000/svg">Administrative DD</title><path xmlns="http://www.w3.org/2000/svg" d="M171.289,163.728v57.72a6,6,0,0,0,6,6H334.711a6,6,0,0,0,6-6V163.727A42.731,42.731,0,0,0,297.979,121H284.711a3.409,3.409,0,0,1-2.416-1,11.752,11.752,0,0,0-5.89-3.407l-1.024-.207a10.671,10.671,0,0,0-9.668,2.913l-1.7,1.7H248.2l-2.333-2.622a9.461,9.461,0,0,0-10.485-2.533l-.774.3a10.49,10.49,0,0,0-4.419,3.524A3.416,3.416,0,0,1,227.48,121H214.021A42.732,42.732,0,0,0,171.289,163.728ZM258.1,133l-1.283,3.742h-1.626L253.9,133Zm-1.661,18.966,6.487,37.307-7.028,8.208-6.774-8.106Zm-17.849-23.716,1.635,1.837,5.352,14.893-8.779,44.9a6,6,0,0,0,1.284,5l13.155,15.742a6.007,6.007,0,0,0,4.569,2.152h.036a6,6,0,0,0,4.558-2.1l13.479-15.742a6,6,0,0,0,1.354-4.93l-8.082-46.473,4.573-13.267,1.939-1.94a15.372,15.372,0,0,0,10.542,4.67c.106.006.211.009.319.009h13.459a30.766,30.766,0,0,1,30.732,30.731v51.721H183.289V163.727A30.766,30.766,0,0,1,214.021,133H227.48A15.365,15.365,0,0,0,238.586,128.246Z" fill="#f37121" data-original="#000000" style=""/><path xmlns="http://www.w3.org/2000/svg" d="M256,105.958a37.526,37.526,0,0,0,37.484-37.484V47.484a37.484,37.484,0,1,0-74.968,0v20.99A37.526,37.526,0,0,0,256,105.958ZM230.516,47.484a25.484,25.484,0,1,1,50.968,0v20.99a25.484,25.484,0,1,1-50.968,0Z" fill="#f37121" data-original="#000000" style=""/><path xmlns="http://www.w3.org/2000/svg" d="M287.484,172.558h20.207a6,6,0,0,0,0-12H287.484a6,6,0,0,0,0,12Z" fill="#f37121" data-original="#000000" style=""/><path xmlns="http://www.w3.org/2000/svg" d="M100.319,377.708A37.527,37.527,0,0,0,137.8,340.224V319.233a37.485,37.485,0,0,0-74.969,0v20.991A37.526,37.526,0,0,0,100.319,377.708ZM74.835,319.233a25.485,25.485,0,0,1,50.969,0v20.991a25.485,25.485,0,0,1-50.969,0Z" fill="#f37121" data-original="#000000" style=""/><path xmlns="http://www.w3.org/2000/svg" d="M142.3,392.745H129.03a3.407,3.407,0,0,1-2.691-1.321,8.17,8.17,0,0,0-5.107-2.866,8.781,8.781,0,0,0-9.76,5.686l-2.714,7.562a8.992,8.992,0,0,1-6.276,5.787,8.825,8.825,0,0,1-10.426-5.7l-2.594-7.526a8.87,8.87,0,0,0-13.375-4.417,8.423,8.423,0,0,0-1.71,1.617,3.411,3.411,0,0,1-2.577,1.175H58.34a42.732,42.732,0,0,0-42.732,42.732V493.2a6,6,0,0,0,6,6H179.029a6,6,0,0,0,6-6V435.477A42.732,42.732,0,0,0,142.3,392.745ZM173.029,487.2H27.608V435.477A30.767,30.767,0,0,1,58.34,404.745H71.8a15.319,15.319,0,0,0,7.811-2.129l1.1,3.189a20.815,20.815,0,0,0,39.272.251l1.235-3.441a15.3,15.3,0,0,0,7.3,2.121c.105.006.21.009.318.009H142.3a30.766,30.766,0,0,1,30.731,30.732Z" fill="#f37121" data-original="#000000" style=""/><path xmlns="http://www.w3.org/2000/svg" d="M411.681,377.708a37.526,37.526,0,0,0,37.484-37.484V319.233a37.485,37.485,0,0,0-74.969,0v20.991A37.527,37.527,0,0,0,411.681,377.708ZM386.2,319.233a25.485,25.485,0,0,1,50.969,0v20.991a25.485,25.485,0,0,1-50.969,0Z" fill="#f37121" data-original="#000000" style=""/><path xmlns="http://www.w3.org/2000/svg" d="M453.66,392.745H440.392a3.415,3.415,0,0,1-2.7-1.33,8.1,8.1,0,0,0-5.085-2.849h0a8.782,8.782,0,0,0-9.771,5.685l-2.713,7.558a8.988,8.988,0,0,1-6.275,5.785,8.828,8.828,0,0,1-10.426-5.7l-3.283-9.527a6.341,6.341,0,0,0-7.093-4.179l-3.02.532a6.828,6.828,0,0,0-4.155,2.693,3.416,3.416,0,0,1-2.7,1.33H369.7a42.732,42.732,0,0,0-42.731,42.732V493.2a6,6,0,0,0,6,6H490.392a6,6,0,0,0,6-6V435.477A42.732,42.732,0,0,0,453.66,392.745ZM484.392,487.2H338.971V435.477A30.766,30.766,0,0,1,369.7,404.745h13.459a15.32,15.32,0,0,0,7.812-2.129l1.1,3.189a20.816,20.816,0,0,0,39.273.252l1.235-3.442a15.3,15.3,0,0,0,7.3,2.121q.158.009.318.009h13.46a30.767,30.767,0,0,1,30.732,30.732Z" fill="#f37121" data-original="#000000" style=""/><path xmlns="http://www.w3.org/2000/svg" d="M332.251,381.327l-9.54-11.519a77.242,77.242,0,0,0,7.4-17.512l14.762-1.44a6,6,0,0,0,5.418-5.971V318.964a6,6,0,0,0-5.424-5.973l-14.985-1.444a75.839,75.839,0,0,0-7.378-17.539l9.514-11.487a6,6,0,0,0-.352-8.043l-18.053-18.284a6,6,0,0,0-8.1-.405L294,265.328a77.271,77.271,0,0,0-17.506-7.4l-1.444-14.99a6,6,0,0,0-5.973-5.424H243.155a6,6,0,0,0-5.972,5.424l-1.445,14.986A75.866,75.866,0,0,0,218.2,265.3l-11.487-9.513a6,6,0,0,0-8.069.378L180.359,274.45a6,6,0,0,0-.379,8.071l9.541,11.519a77.2,77.2,0,0,0-7.4,17.507l-14.989,1.444a6,6,0,0,0-5.424,5.973v25.921a6,6,0,0,0,5.425,5.972l14.984,1.444a75.839,75.839,0,0,0,7.378,17.539l-9.514,11.487a6,6,0,0,0,.379,8.07l18.285,18.284a6,6,0,0,0,8.069.378l11.519-9.539a76.223,76.223,0,0,0,21.8,8.467,6,6,0,1,0,2.535-11.728,65.445,65.445,0,0,1-21.622-9.129,6,6,0,0,0-7.079.421l-10.6,8.781-10.559-10.558,8.782-10.605a6,6,0,0,0,.371-7.155,63.333,63.333,0,0,1-9.08-21.546,6,6,0,0,0-5.289-4.705l-13.784-1.328V324.413l13.784-1.328a6,6,0,0,0,5.289-4.7,65.391,65.391,0,0,1,9.13-21.621,6,6,0,0,0-.421-7.08l-8.782-10.606,10.559-10.557,10.6,8.781a6,6,0,0,0,7.155.371,63.345,63.345,0,0,1,21.546-9.079,6,6,0,0,0,4.705-5.289l1.328-13.785h15.023l1.328,13.785a6,6,0,0,0,4.705,5.289,65.4,65.4,0,0,1,21.622,9.129,6,6,0,0,0,7.079-.421l10.577-8.76,10.377,10.51-8.8,10.632a6,6,0,0,0-.371,7.155,63.333,63.333,0,0,1,9.08,21.546,6,6,0,0,0,5.289,4.7l13.784,1.328v15.028l-13.56,1.323a6,6,0,0,0-5.282,4.7,65.357,65.357,0,0,1-9.13,21.621,6,6,0,0,0,.421,7.08l8.782,10.605-10.558,10.559-10.605-8.782a6,6,0,0,0-7.155-.371,63.345,63.345,0,0,1-21.546,9.079,6,6,0,1,0,2.535,11.728,75.814,75.814,0,0,0,21.836-8.441l11.488,9.513a6,6,0,0,0,8.069-.378L331.872,389.4A6,6,0,0,0,332.251,381.327Z" fill="#f37121" data-original="#000000" style=""/><path xmlns="http://www.w3.org/2000/svg" d="M280.086,315.378a6,6,0,0,0-8.484-.1l-21.117,20.617-9.855-9.622a6,6,0,0,0-8.383,8.585l14.047,13.715a6,6,0,0,0,8.383,0l25.307-24.709A6,6,0,0,0,280.086,315.378Z" fill="#f37121" data-original="#000000" style=""/><path xmlns="http://www.w3.org/2000/svg" d="M265.839,430.967h-3.724V386.786a55.193,55.193,0,1,0-12,0v44.181h-3.954a6,6,0,0,0-6,6v49.194a15.839,15.839,0,1,0,31.678,0V436.967A6,6,0,0,0,265.839,430.967Zm-52.917-99.043a43.194,43.194,0,1,1,43.193,43.194A43.243,43.243,0,0,1,212.922,331.924Zm46.917,154.237a3.839,3.839,0,1,1-7.678,0V462.645h7.678Zm0-35.516h-7.678v-7.678h7.678Z" fill="#f37121" data-original="#000000" style=""/></g></svg>
