<?xml version="1.0"?>
<svg xmlns="http://www.w3.org/2000/svg" xmlns:xlink="http://www.w3.org/1999/xlink" xmlns:svgjs="http://svgjs.com/svgjs" version="1.1" width="512" height="512" x="0" y="0" viewBox="0 0 512 512" style="enable-background:new 0 0 512 512" xml:space="preserve" class=""><g><g xmlns="http://www.w3.org/2000/svg"><path d="m443.704 62.405h-18.004v372.19c0 24.262-19.738 44-44 44h-266.4v18.405c0 8.284 6.716 15 15 15h313.403c8.284 0 15-6.716 15-15v-419.595c.001-8.284-6.715-15-14.999-15z" fill="#f37121" data-original="#000000" style="" class=""/><path d="m131.646 8.789-69.56 69.561 69.555-.005z" fill="#f37121" data-original="#000000" style="" class=""/><path d="m225.025 177.157c-25.104 0-46.459 18.704-50.073 43.185h100.149c-3.606-24.792-24.707-43.185-50.076-43.185z" fill="#f37121" data-original="#000000" style="" class=""/><path d="m396.7 434.595v-419.595c0-8.284-6.716-15-15-15h-220.053l-.008 93.345c-.001 8.283-6.715 14.997-14.998 14.998l-93.345.007v326.245c0 8.284 6.716 15 15 15h313.404c8.284 0 15-6.716 15-15zm-252.091-211.958c0-.386.015-.772.045-1.157 1.563-20.191 10.615-38.927 25.49-52.758 4.849-4.509 10.181-8.349 15.861-11.496-5.787-7.956-9.212-17.735-9.212-28.303 0-26.596 21.637-48.233 48.233-48.233s48.233 21.637 48.233 48.233c0 10.567-3.425 20.344-9.21 28.299 5.477 3.034 10.627 6.717 15.332 11.015 14.781 13.502 23.974 31.875 25.885 51.734.046.478.069.957.069 1.437v13.933c0 8.284-6.716 15-15 15h-130.726c-8.284 0-15-6.716-15-15zm180.391 153.094h-200.7c-8.284 0-15-6.716-15-15s6.716-15 15-15h200.7c8.284 0 15 6.716 15 15s-6.716 15-15 15zm0-60.004h-200.7c-8.284 0-15-6.716-15-15s6.716-15 15-15h200.7c8.284 0 15 6.716 15 15s-6.716 15-15 15z" fill="#f37121" data-original="#000000" style="" class=""/><path d="m243.259 128.924c0-10.054-8.18-18.233-18.233-18.233s-18.233 8.179-18.233 18.233 8.179 18.233 18.233 18.233 18.233-8.18 18.233-18.233z" fill="#f37121" data-original="#000000" style="" class=""/></g></g></svg>
