<?xml version="1.0"?>
<svg xmlns="http://www.w3.org/2000/svg" xmlns:xlink="http://www.w3.org/1999/xlink" xmlns:svgjs="http://svgjs.com/svgjs" version="1.1" width="512" height="512" x="0" y="0" viewBox="0 0 512.003 512.003" style="enable-background:new 0 0 512 512" xml:space="preserve"><g><g xmlns="http://www.w3.org/2000/svg"><path d="m31.433 512.003h342.846c11.31 0 20.51-9.201 20.51-20.509v-8.878h31.592v9.603c0 10.91 8.876 19.785 19.785 19.785h16.08c10.909 0 19.785-8.875 19.785-19.785v-9.691c10.486-.896 19.049-9.981 19.049-20.654v-43.709c0-4.984-1.872-9.62-4.929-13.243 3.057-3.623 4.929-8.258 4.929-13.242v-43.71c0-4.984-1.872-9.62-4.93-13.243 3.058-3.623 4.93-8.259 4.93-13.243v-43.708c0-11.244-9.499-20.743-20.743-20.743h-75.548c-4.143 0-7.5 3.358-7.5 7.5s3.357 7.5 7.5 7.5h75.548c3.06 0 5.743 2.684 5.743 5.743v43.708c0 3.059-2.684 5.743-5.743 5.743h-191.243c-3.06 0-5.743-2.684-5.743-5.743 0-15.891 0-27.923 0-43.708 0-3.06 2.684-5.743 5.743-5.743h80.695c4.143 0 7.5-3.358 7.5-7.5s-3.357-7.5-7.5-7.5h-80.695c-10.423 0-19.332 8.166-20.58 18.314-32.537-12.601-4.873-1.887-18.244-7.065l-.011-19.903c16.988-12.613 28.72-31.902 31.317-53.951 18.415-2.276 34.016-16.93 34.016-34.935 0-12.466-6.366-24.352-15.993-31.18.966-2.417 1.512-5.045 1.512-7.802v-14.701c0-4.142-3.357-7.5-7.5-7.5s-7.5 3.358-7.5 7.5v14.702c0 1.736-.721 3.451-2.262 4.722-2.196 1.801-4.801 1.561-7.737.964-14.473-3.141-14.267-17.01-14.697-19.534-.582-3.412-3.122-6.222-6.574-7.086-3.962-.99-8.033.844-9.933 4.402-7.467 13.965-21.926 22.641-37.735 22.641-9.149 0-76.429 0-85.866 0-7.295 0-13.669-5.936-13.669-13.669v-55.177c0-23.586 19.188-42.775 42.775-42.775h75.655c17.57 0 20.542 7.759 22.232 16.404 1.999 10.223 11.572 17.31 22.288 16.487 7.519-.586 15.521 5.942 15.521 15.042v7.877c0 4.142 3.357 7.5 7.5 7.5s7.5-3.358 7.5-7.5v-7.877c0-18.081-15.678-31.226-31.672-29.998-3.173.245-5.869-1.611-6.417-4.41-3.749-19.194-15.836-28.525-36.95-28.525h-75.655c-31.857 0-57.775 25.918-57.775 57.775v55.176c0 7.739 3.088 14.767 8.09 19.93-7.045 7.031-11.477 16.841-11.477 26.612 0 17.976 15.564 32.656 34.01 34.935 1.998 17.127 9.498 33.034 21.656 45.522 3.233 3.321 6.749 6.299 10.48 8.962l.001 19.314c-.38.203-100.245 38.896-100.646 39.052-.048.019-.096.038-.144.057-21.04 8.659-43.686 33.472-43.686 67.488v116.671c0 11.309 9.2 20.509 20.509 20.509zm250.706-370.491c2.551-.258 5.174-1.092 7.105-2.038 6.642 3.701 11.348 11.749 11.348 20.019 0 9.297-8.283 17.378-18.453 19.629zm-159.435 37.611c-10.292-2.276-18.452-10.433-18.452-19.629 0-7.017 4.282-14.595 10.29-18.687 3.701.899 6.472.814 8.162.814zm205.346 313.095c0 2.594-2.191 4.785-4.785 4.785h-16.08c-2.594 0-4.785-2.191-4.785-4.785v-9.603h25.65zm51.739-.724c0 3.038-2.472 5.509-5.51 5.509h-31.839c.384-1.535.61-3.133.61-4.785v-9.603h36.739zm87.242.724c0 2.594-2.191 4.785-4.785 4.785h-16.08c-2.594 0-4.785-2.191-4.785-4.785v-9.603h25.65zm-183.681-144.248c0-3.059 2.684-5.743 5.743-5.743h191.243c3.06 0 5.743 2.684 5.743 5.743v43.709c0 3.059-2.684 5.742-5.743 5.742h-191.242c-3.059 0-5.743-2.683-5.743-5.743v-43.708zm0 70.194c0-3.059 2.684-5.743 5.743-5.743h191.243c3.06 0 5.743 2.684 5.743 5.743v43.709c0 3.059-2.684 5.743-5.743 5.743-6.736 0-182.686 0-191.243 0-3.059 0-5.743-2.682-5.743-5.742zm-32.117-133.424 17.117 6.629v3.632l-28.313 30.833-14.398-13.222zm-38.616 19.913h-19.353c-.621-.734 2.556 2.746-25.473-27.779 1.728-2.354 2.608-5.164 2.608-8.425v-11.137c10.566 4.456 21.969 6.547 33.053 6.547 11.322 0 22.256-2.489 31.813-6.728l.006 11.384c.01 3.133.99 6.068 2.705 8.485-27.99 30.482-24.725 26.906-25.359 27.653zm.099 16.347v45.718h-19.548v-45.719c.248-.287.744-.931 1.015-1.346h17.517c.185.286.697.979 1.016 1.347zm-75.012-135.828v-43.552h69.471c16.82 0 32.146-7.25 42.717-18.875 3.526 7.249 9.602 13.025 17.045 16.197.068.029.135.062.203.091v46.14c0 35.121-28.602 63.687-63.688 63.687-39.355-.001-65.748-30.525-65.748-63.688zm16.875 99.492 25.665 27.95-14.398 13.221-30.838-33.583c12.542-4.863 9.311-3.61 19.571-7.588zm-128.655 90.159c0-28.905 20.5-47.864 34.325-53.588l59.74-23.161 36.449 39.694c4.704 5.125 12.656 5.449 17.763.758l3.967-3.642v32.099c0 8.125 6.609 14.735 14.734 14.735h20.078c8.125 0 14.735-6.61 14.735-14.735v-32.098l3.966 3.642c5.113 4.696 13.065 4.36 17.764-.758l18.905-20.589v4.306c0 4.885 1.895 9.663 4.919 13.243-2.952 3.495-4.919 8.335-4.919 13.243v43.708.004c0 4.876 1.899 9.644 4.919 13.238-3.002 3.554-4.919 8.394-4.919 13.243v43.709c0 10.673 8.553 19.756 19.049 20.654v9.691c0 1.653.226 3.25.61 4.785h-207.61v-113.168c0-4.142-3.357-7.5-7.5-7.5s-7.5 3.358-7.5 7.5v113.167h-33.966c-3.038 0-5.51-2.472-5.51-5.509v-116.671z" fill="#f36802" data-original="#000000" style=""/><path d="m308.276 447.519h63.983c4.143 0 7.5-3.358 7.5-7.5s-3.357-7.5-7.5-7.5h-63.983c-4.143 0-7.5 3.358-7.5 7.5s3.358 7.5 7.5 7.5z" fill="#f36802" data-original="#000000" style=""/><path d="m308.276 377.325h63.983c4.143 0 7.5-3.358 7.5-7.5s-3.357-7.5-7.5-7.5h-63.983c-4.143 0-7.5 3.358-7.5 7.5s3.358 7.5 7.5 7.5z" fill="#f36802" data-original="#000000" style=""/><path d="m447.514 377.325h13.542c4.143 0 7.5-3.358 7.5-7.5s-3.357-7.5-7.5-7.5h-13.542c-4.143 0-7.5 3.358-7.5 7.5s3.358 7.5 7.5 7.5z" fill="#f36802" data-original="#000000" style=""/><path d="m308.276 292.13c-4.143 0-7.5 3.358-7.5 7.5s3.357 7.5 7.5 7.5h63.983c4.143 0 7.5-3.358 7.5-7.5s-3.357-7.5-7.5-7.5z" fill="#f36802" data-original="#000000" style=""/><path d="m461.056 307.13c4.143 0 7.5-3.358 7.5-7.5s-3.357-7.5-7.5-7.5h-13.542c-4.143 0-7.5 3.358-7.5 7.5s3.357 7.5 7.5 7.5z" fill="#f36802" data-original="#000000" style=""/><path d="m447.514 447.519h13.542c4.143 0 7.5-3.358 7.5-7.5s-3.357-7.5-7.5-7.5h-13.542c-4.143 0-7.5 3.358-7.5 7.5s3.358 7.5 7.5 7.5z" fill="#f36802" data-original="#000000" style=""/><path d="m407.589 377.325h13.542c4.143 0 7.5-3.358 7.5-7.5s-3.357-7.5-7.5-7.5h-13.542c-4.143 0-7.5 3.358-7.5 7.5s3.357 7.5 7.5 7.5z" fill="#f36802" data-original="#000000" style=""/><path d="m421.131 307.13c4.143 0 7.5-3.358 7.5-7.5s-3.357-7.5-7.5-7.5h-13.542c-4.143 0-7.5 3.358-7.5 7.5s3.357 7.5 7.5 7.5z" fill="#f36802" data-original="#000000" style=""/><path d="m407.589 447.519h13.542c4.143 0 7.5-3.358 7.5-7.5s-3.357-7.5-7.5-7.5h-13.542c-4.143 0-7.5 3.358-7.5 7.5s3.357 7.5 7.5 7.5z" fill="#f36802" data-original="#000000" style=""/></g></g></svg>
