<?xml version="1.0"?>
<svg xmlns="http://www.w3.org/2000/svg" xmlns:xlink="http://www.w3.org/1999/xlink" xmlns:svgjs="http://svgjs.com/svgjs" version="1.1" width="512" height="512" x="0" y="0" viewBox="0 0 510 510" style="enable-background:new 0 0 512 512" xml:space="preserve" class=""><g><g xmlns="http://www.w3.org/2000/svg"><path d="m390 173.193v-173.193h-270v173.193l-120 105v231.807h510v-231.807zm-318.434 216.807-41.566 58.193v-116.386zm26.153 15h314.561l53.571 75h-421.703zm340.715-15 41.566-58.192v116.385zm36.461-102.66-62.615 87.66h-22.28v-161.943zm-324.895-257.34h210v345h-210zm-30 345h-22.281l-62.614-87.66 84.895-74.283z" fill="#b2b2b2" data-original="#000000" style=""/><path d="m299.5 75v-15h-89v15c0 8.547-6.953 15.5-15.5 15.5h-15v89.5h30v-62.04c13.042-4.567 23.393-14.919 27.96-27.96h34.08c4.567 13.041 14.919 23.393 27.96 27.96v62.04h30v-89.5h-15c-8.547 0-15.5-6.953-15.5-15.5z" fill="#b2b2b2" data-original="#000000" style=""/><path d="m255 195c-33.084 0-60 26.916-60 60s26.916 60 60 60 60-26.916 60-60-26.916-60-60-60zm0 90c-16.542 0-30-13.458-30-30s13.458-30 30-30 30 13.458 30 30-13.458 30-30 30z" fill="#b2b2b2" data-original="#000000" style=""/></g></g></svg>
