<?xml version="1.0"?>
<svg xmlns="http://www.w3.org/2000/svg" xmlns:xlink="http://www.w3.org/1999/xlink" xmlns:svgjs="http://svgjs.com/svgjs" version="1.1" width="512" height="512" x="0" y="0" viewBox="0 0 24 24" style="enable-background:new 0 0 512 512" xml:space="preserve"><g><g xmlns="http://www.w3.org/2000/svg"><path d="m11 24c-1.93 0-3.5-1.57-3.5-3.5 0-.276.224-.5.5-.5s.5.224.5.5c0 1.378 1.121 2.5 2.5 2.5s2.5-1.122 2.5-2.5c0-.276.224-.5.5-.5s.5.224.5.5c0 1.93-1.57 3.5-3.5 3.5z" fill="#000000" data-original="#000000" style=""/></g><g xmlns="http://www.w3.org/2000/svg"><path d="m19.5 21h-17c-.827 0-1.5-.673-1.5-1.5 0-.439.191-.854.524-1.14.021-.018.044-.034.067-.048 1.532-1.33 2.409-3.248 2.409-5.272v-3.04c0-3.86 3.141-7 7-7 .08 0 .177.003.257.019.271.053.447.316.394.587-.052.271-.316.447-.588.394-3.372 0-6.063 2.692-6.063 6v3.04c0 2.343-1.026 4.559-2.815 6.081-.016.013-.032.026-.05.037-.086.092-.135.214-.135.342 0 .276.225.5.5.5h17c.275 0 .5-.224.5-.5 0-.128-.049-.251-.137-.343-.017-.011-.032-.023-.048-.036-1.789-1.522-2.815-3.738-2.815-6.081v-1.07c0-.276.224-.5.5-.5s.5.224.5.5v1.07c0 2.026.878 3.944 2.411 5.274.023.014.045.029.064.046.334.286.525.701.525 1.14 0 .827-.673 1.5-1.5 1.5z" fill="#000000" data-original="#000000" style=""/></g><g xmlns="http://www.w3.org/2000/svg"><path d="m18 10c-2.757 0-5-2.243-5-5s2.243-5 5-5 5 2.243 5 5-2.243 5-5 5zm0-9c-2.206 0-4 1.794-4 4s1.794 4 4 4 4-1.794 4-4-1.794-4-4-4z" fill="#000000" data-original="#000000" style=""/></g></g></svg>
